<svg width="14" height="14" viewBox="0 0 14 14" fill="none" xmlns="http://www.w3.org/2000/svg">
<path d="M0.519531 7.5332H12.209L8.33984 11.4844C8.23958 11.5846 8.18945 11.71 8.18945 11.8604C8.18945 12.0107 8.23958 12.1361 8.33984 12.2363C8.39453 12.291 8.45378 12.332 8.51758 12.3594C8.58138 12.3867 8.64518 12.4004 8.70898 12.4004C8.7819 12.4004 8.85026 12.3867 8.91406 12.3594C8.97786 12.332 9.03255 12.291 9.07812 12.2363L13.8496 7.38281C13.9499 7.27344 14 7.14583 14 7C14 6.85417 13.9499 6.72656 13.8496 6.61719L9.07812 1.76367C8.97786 1.6543 8.85482 1.59961 8.70898 1.59961C8.56315 1.59961 8.4401 1.6543 8.33984 1.76367C8.23958 1.86393 8.18945 1.98926 8.18945 2.13965C8.18945 2.29004 8.23958 2.41536 8.33984 2.51562L12.209 6.4668H0.519531C0.373698 6.4668 0.250651 6.51921 0.150391 6.62402C0.0501302 6.72884 0 6.85417 0 7C0 7.14583 0.0501302 7.27116 0.150391 7.37598C0.250651 7.48079 0.373698 7.5332 0.519531 7.5332Z" fill="#0F3D3A"/>
</svg>
