<svg width="19" height="18" viewBox="0 0 19 18" fill="none" xmlns="http://www.w3.org/2000/svg">
<path d="M4.25 0.0878865L1.85938 2.49609C1.3086 3.04687 1.00098 3.75293 0.936527 4.61425C0.872074 5.47558 1.00391 6.39843 1.33203 7.38281C1.4961 7.88671 1.70118 8.39648 1.94727 8.91211C2.20508 9.42773 2.50391 9.94629 2.84375 10.4678C3.1836 10.9893 3.56446 11.5078 3.98633 12.0234C4.40821 12.5508 4.86524 13.0605 5.35743 13.5527C5.86133 14.0449 6.3711 14.5019 6.88672 14.9238C7.40235 15.3457 7.9209 15.7266 8.44239 16.0664C8.96387 16.4062 9.48243 16.7051 9.99805 16.9629C10.5137 17.209 11.0234 17.4141 11.5273 17.5781C12.5117 17.9062 13.4346 18.0381 14.2959 17.9736C15.1572 17.9092 15.8633 17.6016 16.4141 17.0508L18.8223 14.6602C18.8809 14.6016 18.9102 14.5283 18.9102 14.4404C18.9102 14.3525 18.8809 14.2793 18.8223 14.2207L14.9727 10.3711C14.9141 10.3125 14.8438 10.2832 14.7617 10.2832C14.6797 10.2832 14.6094 10.3125 14.5508 10.3711L12.2305 12.6914C12.1719 12.75 12.0928 12.7969 11.9932 12.832C11.8936 12.8672 11.7793 12.8906 11.6504 12.9023C11.5098 12.9023 11.3545 12.8848 11.1846 12.8496C11.0147 12.8144 10.8301 12.7559 10.6309 12.6738C10.2441 12.5332 9.82813 12.3105 9.38282 12.0059C8.9375 11.7012 8.49805 11.332 8.06446 10.8984C7.63086 10.4648 7.26465 10.0254 6.96582 9.58007C6.667 9.13476 6.44141 8.71875 6.28907 8.33203C6.20703 8.13281 6.14844 7.94824 6.11328 7.77832C6.07813 7.60839 6.06055 7.45312 6.06055 7.3125C6.07227 7.18359 6.09571 7.06933 6.13086 6.96972C6.16602 6.87011 6.21289 6.79101 6.27149 6.73242L8.5918 4.42968C8.65039 4.35937 8.67969 4.2832 8.67969 4.20117C8.67969 4.11914 8.65039 4.04882 8.5918 3.99023L4.68946 0.0878865C4.66602 0.064449 4.63379 0.0439411 4.59278 0.026363C4.55176 0.00878489 4.51368 -4.17233e-06 4.47852 -4.17233e-06C4.43164 -4.17233e-06 4.39063 0.00878489 4.35547 0.026363C4.32032 0.0439411 4.28516 0.064449 4.25 0.0878865ZM4.47852 0.755855L7.92383 4.20117L5.83203 6.29296C5.70313 6.42187 5.60645 6.57421 5.542 6.75C5.47754 6.92578 5.44532 7.11328 5.44532 7.3125C5.44532 7.5 5.46582 7.69921 5.50684 7.91015C5.54786 8.12109 5.61524 8.33789 5.70899 8.56054C5.87305 9.00586 6.11914 9.46582 6.44727 9.94043C6.77539 10.415 7.16797 10.8809 7.625 11.3379C8.08203 11.7949 8.54786 12.1875 9.02246 12.5156C9.49707 12.8437 9.95704 13.0898 10.4023 13.2539C10.625 13.3477 10.8418 13.415 11.0527 13.4561C11.2637 13.4971 11.4629 13.5176 11.6504 13.5176C11.8496 13.5176 12.0371 13.4853 12.2129 13.4209C12.3887 13.3564 12.541 13.2598 12.6699 13.1309L14.7617 11.0391L18.1543 14.4316L15.9746 16.6113C15.541 17.0449 14.9551 17.2939 14.2168 17.3584C13.4785 17.4228 12.6465 17.3027 11.7207 16.998C11.252 16.8457 10.7715 16.6465 10.2793 16.4004C9.78711 16.1543 9.28907 15.8701 8.78516 15.5478C8.28125 15.2256 7.77735 14.8594 7.27344 14.4492C6.76953 14.0391 6.27735 13.5937 5.79688 13.1133C5.31641 12.6328 4.8711 12.1406 4.46094 11.6367C4.05078 11.1328 3.68457 10.6289 3.36231 10.125C3.04004 9.62109 2.75586 9.12304 2.50977 8.63086C2.26368 8.13867 2.06446 7.6582 1.91211 7.18945C1.60743 6.26367 1.48438 5.43164 1.54297 4.69336C1.60157 3.95507 1.85352 3.36914 2.29883 2.93554L4.47852 0.755855Z" fill="#0F3D3A"/>
</svg>
