<?xml version="1.0" encoding="UTF-8"?>
<svg xmlns="http://www.w3.org/2000/svg" width="50.873" height="66.5" viewBox="0 0 50.873 66.5">
  <g id="Add_on-Furnishing" data-name="Add on-Furnishing" transform="translate(0 1.5)">
    <path id="Path_5020" data-name="Path 5020" d="M41.744,37.9H19.769a2.826,2.826,0,0,1-2.8-3.092L19.26,9.217a2.824,2.824,0,0,1,2.8-2.577H39.431a2.839,2.839,0,0,1,2.8,2.577l2.293,25.592a2.826,2.826,0,0,1-2.8,3.092Z" transform="translate(-5.33 -6.64)" fill="none" stroke="#fff" stroke-linejoin="round" stroke-width="3"></path>
    <path id="Path_5021" data-name="Path 5021" d="M30.92,33.773h.337a5.646,5.646,0,0,0,5.511-4.3l3.192-9.932" transform="translate(8.079 5.834)" fill="none" stroke="#fff" stroke-linejoin="round" stroke-width="3"></path>
    <path id="Path_5022" data-name="Path 5022" d="M12.52,19.54l3.192,9.932a5.663,5.663,0,0,0,5.511,4.3h.337" transform="translate(-9.685 5.834)" fill="none" stroke="#fff" stroke-linejoin="round" stroke-width="3"></path>
    <path id="Path_5023" data-name="Path 5023" d="M36.515,23.85H25.261a8.477,8.477,0,0,0-8.431,8.524H44.966a8.477,8.477,0,0,0-8.431-8.524Z" transform="translate(-5.451 10.028)" fill="none" stroke="#fff" stroke-linejoin="round" stroke-width="3"></path>
    <line id="Line_108" data-name="Line 108" y2="22.757" transform="translate(25.436 42.243)" fill="none" stroke="#fff" stroke-linejoin="round" stroke-width="3"></line>
    <path id="Path_5024" data-name="Path 5024" d="M41.017,42.449a5.689,5.689,0,0,0-5.689-5.689H23.949a5.689,5.689,0,0,0-5.689,5.689" transform="translate(-4.202 22.551)" fill="none" stroke="#fff" stroke-linejoin="round" stroke-width="3"></path>
    <path id="Path_5025" data-name="Path 5025" d="M39.729,19.54H34.04" transform="translate(11.144 5.877)" fill="none" stroke="#fff" stroke-linejoin="round" stroke-width="3"></path>
    <path id="Path_5026" data-name="Path 5026" d="M16.779,19.54H11.09" transform="translate(-11.09 5.877)" fill="none" stroke="#fff" stroke-linejoin="round" stroke-width="3"></path>
  </g>
</svg>
