<svg width="199" height="48" viewBox="0 0 199 48" fill="none" xmlns="http://www.w3.org/2000/svg">
<g id="Logo">
<g id="Logo_brand">
<path d="M0.732422 32.4249V9.06494H5.98042V32.4249H0.732422ZM5.34042 32.4249V27.8169H15.1324V32.4249H5.34042Z" fill="#0B2031"/>
<path d="M26.9134 33.0329C25.3774 33.0329 24.0121 32.7983 22.8174 32.3289C21.6228 31.8383 20.6094 31.1769 19.7774 30.3449C18.9668 29.5129 18.3481 28.5636 17.9214 27.4969C17.4948 26.4089 17.2814 25.2676 17.2814 24.0729V23.3369C17.2814 22.1209 17.4948 20.9689 17.9214 19.8809C18.3694 18.7716 19.0094 17.8009 19.8414 16.9689C20.6948 16.1369 21.7188 15.4863 22.9134 15.0169C24.1081 14.5263 25.4414 14.2809 26.9134 14.2809C28.4281 14.2809 29.7721 14.5263 30.9454 15.0169C32.1401 15.4863 33.1534 16.1369 33.9854 16.9689C34.8174 17.8009 35.4574 18.7716 35.9054 19.8809C36.3534 20.9689 36.5774 22.1209 36.5774 23.3369V24.0729C36.5774 25.2676 36.3641 26.4089 35.9374 27.4969C35.5108 28.5636 34.8814 29.5129 34.0494 30.3449C33.2388 31.1769 32.2361 31.8383 31.0414 32.3289C29.8468 32.7983 28.4708 33.0329 26.9134 33.0329ZM26.9134 28.7129C27.9161 28.7129 28.7481 28.4996 29.4094 28.0729C30.0708 27.6463 30.5721 27.0489 30.9134 26.2809C31.2761 25.5129 31.4574 24.6596 31.4574 23.7209C31.4574 22.7183 31.2761 21.8436 30.9134 21.0969C30.5508 20.3289 30.0281 19.7209 29.3454 19.2729C28.6841 18.8249 27.8734 18.6009 26.9134 18.6009C25.9748 18.6009 25.1641 18.8249 24.4814 19.2729C23.7988 19.7209 23.2761 20.3289 22.9134 21.0969C22.5721 21.8436 22.4014 22.7183 22.4014 23.7209C22.4014 24.6596 22.5721 25.5129 22.9134 26.2809C23.2548 27.0489 23.7668 27.6463 24.4494 28.0729C25.1321 28.4996 25.9534 28.7129 26.9134 28.7129Z" fill="#0B2031"/>
<path d="M47.3627 39.4009C46.5093 39.4009 45.6347 39.3689 44.7387 39.3049C43.8427 39.2409 43.0213 39.1556 42.2747 39.0489V34.7289C43.0213 34.8356 43.8427 34.9209 44.7387 34.9849C45.656 35.0703 46.488 35.1129 47.2347 35.1129C48.6213 35.1129 49.7413 34.9529 50.5947 34.6329C51.4693 34.3129 52.1093 33.8223 52.5147 33.1609C52.92 32.5209 53.1227 31.6889 53.1227 30.6649V27.1769L54.0507 25.1289C54.008 26.6863 53.6987 28.0196 53.1227 29.1289C52.568 30.2383 51.7893 31.0916 50.7867 31.6889C49.784 32.2649 48.5893 32.5529 47.2027 32.5529C46.008 32.5529 44.92 32.3396 43.9387 31.9129C42.9787 31.4649 42.1573 30.8463 41.4747 30.0569C40.792 29.2676 40.2693 28.3503 39.9067 27.3049C39.544 26.2383 39.3627 25.0863 39.3627 23.8489V23.1129C39.3627 21.8756 39.5547 20.7236 39.9387 19.6569C40.3227 18.5903 40.8773 17.6623 41.6027 16.8729C42.328 16.0836 43.192 15.4756 44.1947 15.0489C45.1973 14.6009 46.3067 14.3769 47.5227 14.3769C48.9307 14.3769 50.1467 14.6863 51.1707 15.3049C52.216 15.9236 53.0373 16.8303 53.6347 18.0249C54.232 19.2196 54.552 20.6596 54.5947 22.3449L53.8907 22.5369V14.8889H57.9547V30.3449C57.9547 32.4996 57.5707 34.2383 56.8027 35.5609C56.0347 36.8836 54.8613 37.8543 53.2827 38.4729C51.7253 39.0916 49.752 39.4009 47.3627 39.4009ZM48.8027 28.2329C49.592 28.2329 50.3067 28.0623 50.9467 27.7209C51.5867 27.3583 52.088 26.8463 52.4507 26.1849C52.8347 25.5236 53.0267 24.7236 53.0267 23.7849V22.8569C53.0267 21.9396 52.824 21.1716 52.4187 20.5529C52.0347 19.9129 51.5227 19.4329 50.8827 19.1129C50.2427 18.7716 49.56 18.6009 48.8347 18.6009C47.9813 18.6009 47.224 18.8036 46.5627 19.2089C45.9013 19.6143 45.3893 20.1796 45.0267 20.9049C44.664 21.6303 44.4827 22.4836 44.4827 23.4649C44.4827 24.4676 44.664 25.3316 45.0267 26.0569C45.4107 26.7609 45.9227 27.3049 46.5627 27.6889C47.224 28.0516 47.9707 28.2329 48.8027 28.2329Z" fill="#0B2031"/>
<path d="M71.2322 33.0329C69.6962 33.0329 68.3308 32.7983 67.1362 32.3289C65.9415 31.8383 64.9282 31.1769 64.0962 30.3449C63.2855 29.5129 62.6668 28.5636 62.2402 27.4969C61.8135 26.4089 61.6002 25.2676 61.6002 24.0729V23.3369C61.6002 22.1209 61.8135 20.9689 62.2402 19.8809C62.6882 18.7716 63.3282 17.8009 64.1602 16.9689C65.0135 16.1369 66.0375 15.4863 67.2322 15.0169C68.4268 14.5263 69.7602 14.2809 71.2322 14.2809C72.7468 14.2809 74.0908 14.5263 75.2642 15.0169C76.4588 15.4863 77.4722 16.1369 78.3042 16.9689C79.1362 17.8009 79.7762 18.7716 80.2242 19.8809C80.6722 20.9689 80.8962 22.1209 80.8962 23.3369V24.0729C80.8962 25.2676 80.6828 26.4089 80.2562 27.4969C79.8295 28.5636 79.2002 29.5129 78.3682 30.3449C77.5575 31.1769 76.5548 31.8383 75.3602 32.3289C74.1655 32.7983 72.7895 33.0329 71.2322 33.0329ZM71.2322 28.7129C72.2348 28.7129 73.0668 28.4996 73.7282 28.0729C74.3895 27.6463 74.8908 27.0489 75.2322 26.2809C75.5948 25.5129 75.7762 24.6596 75.7762 23.7209C75.7762 22.7183 75.5948 21.8436 75.2322 21.0969C74.8695 20.3289 74.3468 19.7209 73.6642 19.2729C73.0028 18.8249 72.1922 18.6009 71.2322 18.6009C70.2935 18.6009 69.4828 18.8249 68.8002 19.2729C68.1175 19.7209 67.5948 20.3289 67.2322 21.0969C66.8908 21.8436 66.7202 22.7183 66.7202 23.7209C66.7202 24.6596 66.8908 25.5129 67.2322 26.2809C67.5735 27.0489 68.0855 27.6463 68.7682 28.0729C69.4508 28.4996 70.2722 28.7129 71.2322 28.7129Z" fill="#0B2031"/>
<path d="M81.3397 37.8969V34.0569H100.22V37.8969H81.3397Z" fill="#0B2031"/>
<path d="M114.01 33.0009C112.58 33.0009 111.322 32.7023 110.234 32.1049C109.146 31.4863 108.292 30.6009 107.674 29.4489C107.055 28.2969 106.724 26.8889 106.682 25.2249H107.29V32.4249H103.226V9.06494H108.346V20.9369L107.13 22.4729C107.194 20.7023 107.524 19.2196 108.122 18.0249C108.74 16.8089 109.583 15.9023 110.65 15.3049C111.716 14.6863 112.932 14.3769 114.298 14.3769C115.492 14.3769 116.57 14.6009 117.53 15.0489C118.511 15.4756 119.343 16.0943 120.026 16.9049C120.708 17.6943 121.231 18.6329 121.594 19.7209C121.978 20.8089 122.17 21.9929 122.17 23.2729V23.9769C122.17 25.2569 121.978 26.4409 121.594 27.5289C121.231 28.6169 120.687 29.5769 119.962 30.4089C119.258 31.2196 118.404 31.8596 117.402 32.3289C116.399 32.7769 115.268 33.0009 114.01 33.0009ZM112.666 28.7129C113.54 28.7129 114.298 28.4996 114.938 28.0729C115.599 27.6463 116.111 27.0489 116.474 26.2809C116.836 25.4916 117.018 24.6063 117.018 23.6249C117.018 22.6223 116.836 21.7476 116.474 21.0009C116.111 20.2543 115.599 19.6783 114.938 19.2729C114.298 18.8463 113.54 18.6329 112.666 18.6329C111.898 18.6329 111.172 18.8143 110.49 19.1769C109.807 19.5396 109.252 20.0623 108.826 20.7449C108.42 21.4063 108.218 22.2169 108.218 23.1769V24.3609C108.218 25.2783 108.431 26.0676 108.858 26.7289C109.306 27.3689 109.871 27.8596 110.554 28.2009C111.236 28.5423 111.94 28.7129 112.666 28.7129Z" fill="#0B2031"/>
<path d="M126.026 32.4249V14.8889H130.09V22.4089H129.994C129.994 19.9343 130.516 18.0249 131.562 16.6809C132.628 15.3369 134.164 14.6649 136.17 14.6649H136.842V19.0809H135.562C134.154 19.0809 133.066 19.4649 132.298 20.2329C131.53 20.9796 131.146 22.0676 131.146 23.4969V32.4249H126.026Z" fill="#0B2031"/>
<path d="M150.261 32.4249V27.2409H149.397V21.6089C149.397 20.7129 149.184 20.0409 148.757 19.5929C148.331 19.1449 147.648 18.9209 146.709 18.9209C146.24 18.9209 145.621 18.9316 144.853 18.9529C144.085 18.9743 143.296 19.0063 142.485 19.0489C141.675 19.0916 140.939 19.1343 140.277 19.1769V14.8569C140.768 14.8143 141.344 14.7716 142.005 14.7289C142.667 14.6863 143.349 14.6543 144.053 14.6329C144.757 14.6116 145.419 14.6009 146.037 14.6009C147.829 14.6009 149.333 14.8569 150.549 15.3689C151.787 15.8809 152.725 16.6596 153.365 17.7049C154.005 18.7289 154.325 20.0516 154.325 21.6729V32.4249H150.261ZM144.661 32.8729C143.403 32.8729 142.293 32.6489 141.333 32.2009C140.395 31.7529 139.659 31.1129 139.125 30.2809C138.592 29.4276 138.325 28.4143 138.325 27.2409C138.325 25.9609 138.656 24.9156 139.317 24.1049C139.979 23.2729 140.907 22.6649 142.101 22.2809C143.296 21.8756 144.672 21.6729 146.229 21.6729H149.973V24.5209H146.197C145.301 24.5209 144.608 24.7449 144.117 25.1929C143.648 25.6196 143.413 26.2063 143.413 26.9529C143.413 27.6569 143.648 28.2329 144.117 28.6809C144.608 29.1076 145.301 29.3209 146.197 29.3209C146.773 29.3209 147.285 29.2249 147.733 29.0329C148.203 28.8196 148.587 28.4676 148.885 27.9769C149.184 27.4863 149.355 26.8036 149.397 25.9289L150.613 27.2089C150.507 28.4249 150.208 29.4489 149.717 30.2809C149.248 31.1129 148.587 31.7529 147.733 32.2009C146.901 32.6489 145.877 32.8729 144.661 32.8729Z" fill="#0B2031"/>
<path d="M158.969 32.4249V14.8889H163.033V22.4089H162.745C162.745 20.6169 162.969 19.1236 163.417 17.9289C163.887 16.7343 164.591 15.8383 165.529 15.2409C166.468 14.6436 167.609 14.3449 168.953 14.3449H169.177C171.225 14.3449 172.783 15.0169 173.849 16.3609C174.937 17.6836 175.481 19.6996 175.481 22.4089V32.4249H170.361V22.1209C170.361 21.1823 170.084 20.4143 169.529 19.8169C168.975 19.2196 168.228 18.9209 167.289 18.9209C166.329 18.9209 165.551 19.2303 164.953 19.8489C164.377 20.4463 164.089 21.2356 164.089 22.2169V32.4249H158.969Z" fill="#0B2031"/>
<path d="M187.376 33.0009C186.139 33.0009 185.008 32.7769 183.984 32.3289C182.982 31.8809 182.107 31.2623 181.36 30.4729C180.614 29.6623 180.038 28.7129 179.632 27.6249C179.248 26.5369 179.056 25.3636 179.056 24.1049V23.3689C179.056 22.1103 179.238 20.9369 179.6 19.8489C179.984 18.7609 180.528 17.8116 181.232 17.0009C181.958 16.1689 182.822 15.5289 183.824 15.0809C184.827 14.6116 185.947 14.3769 187.184 14.3769C188.592 14.3769 189.808 14.6863 190.832 15.3049C191.856 15.9023 192.656 16.7983 193.232 17.9929C193.808 19.1663 194.128 20.6169 194.192 22.3449L192.848 21.0969V9.06494H198V32.4249H193.936V25.1609H194.64C194.576 26.8249 194.224 28.2436 193.584 29.4169C192.966 30.5903 192.123 31.4863 191.056 32.1049C189.99 32.7023 188.763 33.0009 187.376 33.0009ZM188.656 28.7129C189.446 28.7129 190.16 28.5423 190.8 28.2009C191.462 27.8383 191.984 27.3156 192.368 26.6329C192.774 25.9503 192.976 25.1289 192.976 24.1689V22.9849C192.976 22.0463 192.774 21.2569 192.368 20.6169C191.963 19.9769 191.43 19.4863 190.768 19.1449C190.107 18.8036 189.392 18.6329 188.624 18.6329C187.771 18.6329 187.003 18.8569 186.32 19.3049C185.659 19.7316 185.136 20.3289 184.752 21.0969C184.368 21.8436 184.176 22.7183 184.176 23.7209C184.176 24.7449 184.368 25.6303 184.752 26.3769C185.136 27.1236 185.67 27.6996 186.352 28.1049C187.035 28.5103 187.803 28.7129 188.656 28.7129Z" fill="#0B2031"/>
</g>
</g>
</svg>
