<svg width="142" height="21" viewBox="0 0 142 21" fill="none" xmlns="http://www.w3.org/2000/svg">
<g id="Group 1541">
<g id="Group">
<path id="Vector" d="M20.8306 8.34109L16.2156 12.8376L17.3045 19.1934C17.349 19.4749 17.2379 19.749 17.0082 19.9194C16.8823 20.0157 16.7267 20.0601 16.5712 20.0601C16.4527 20.0601 16.3341 20.0305 16.223 19.9786L10.5191 16.9785L4.81513 19.9786C4.56327 20.112 4.26696 20.0897 4.03732 19.9194C3.80768 19.7564 3.69657 19.4749 3.74101 19.1934L4.82995 12.8376L0.222347 8.34109C0.0223383 8.14108 -0.0517389 7.85218 0.0371538 7.5855C0.126046 7.31883 0.355686 7.11882 0.637179 7.08178L7.01522 6.15581L9.8672 0.377794C10.1191 -0.125931 10.9487 -0.125931 11.1932 0.377794L14.0451 6.15581L20.4232 7.08178C20.7047 7.12622 20.9343 7.31883 21.0232 7.5855C21.1121 7.85218 21.038 8.14108 20.8306 8.34109Z" fill="#FF9C00"/>
</g>
<g id="Group_2">
<path id="Vector_2" d="M50.8912 8.34109L46.2762 12.8376L47.3651 19.1934C47.4095 19.4749 47.2984 19.749 47.0688 19.9194C46.9429 20.0157 46.7873 20.0601 46.6317 20.0601C46.5132 20.0601 46.3947 20.0305 46.2836 19.9786L40.5796 16.9785L34.8757 19.9786C34.6238 20.112 34.3275 20.0897 34.0979 19.9194C33.8682 19.7564 33.7571 19.4749 33.8016 19.1934L34.8905 12.8376L30.2829 8.34109C30.0829 8.14108 30.0088 7.85218 30.0977 7.5855C30.1866 7.31883 30.4162 7.11882 30.6977 7.08178L37.0758 6.15581L39.9277 0.377794C40.1796 -0.125931 41.0093 -0.125931 41.2537 0.377794L44.1057 6.15581L50.4837 7.08178C50.7652 7.12622 50.9949 7.31883 51.0838 7.5855C51.1727 7.85218 51.0986 8.14108 50.8912 8.34109Z" fill="#FF9C00"/>
</g>
<g id="Group_3">
<path id="Vector_3" d="M80.9507 8.34109L76.3357 12.8376L77.4247 19.1934C77.4691 19.4749 77.358 19.749 77.1284 19.9194C77.0024 20.0157 76.8469 20.0601 76.6913 20.0601C76.5728 20.0601 76.4543 20.0305 76.3431 19.9786L70.6392 16.9785L64.9352 19.9786C64.6834 20.112 64.3871 20.0897 64.1574 19.9194C63.9278 19.7564 63.8167 19.4749 63.8611 19.1934L64.9501 12.8376L60.3425 8.34109C60.1425 8.14108 60.0684 7.85218 60.1573 7.5855C60.2462 7.31883 60.4758 7.11882 60.7573 7.08178L67.1353 6.15581L69.9873 0.377794C70.2392 -0.125931 71.0688 -0.125931 71.3133 0.377794L74.1653 6.15581L80.5433 7.08178C80.8248 7.12622 81.0544 7.31883 81.1433 7.5855C81.2322 7.85218 81.1582 8.14108 80.9507 8.34109Z" fill="#FF9C00"/>
</g>
<g id="Group_4">
<path id="Vector_4" d="M111.011 8.34109L106.396 12.8376L107.485 19.1934C107.53 19.4749 107.419 19.749 107.189 19.9194C107.063 20.0157 106.907 20.0601 106.752 20.0601C106.633 20.0601 106.515 20.0305 106.404 19.9786L100.7 16.9785L94.9958 19.9786C94.7439 20.112 94.4476 20.0897 94.218 19.9194C93.9883 19.7564 93.8772 19.4749 93.9217 19.1934L95.0106 12.8376L90.403 8.34109C90.203 8.14108 90.1289 7.85218 90.2178 7.5855C90.3067 7.31883 90.5363 7.11882 90.8178 7.08178L97.1959 6.15581L100.048 0.377794C100.3 -0.125931 101.129 -0.125931 101.374 0.377794L104.226 6.15581L110.604 7.08178C110.885 7.12622 111.115 7.31883 111.204 7.5855C111.293 7.85218 111.219 8.14108 111.011 8.34109Z" fill="#FF9C00"/>
<path id="Vector_5" d="M111.011 8.34109L106.396 12.8376L107.485 19.1934C107.53 19.4749 107.419 19.749 107.189 19.9194C107.063 20.0157 106.907 20.0601 106.752 20.0601C106.633 20.0601 106.515 20.0305 106.404 19.9786L100.7 16.9785L94.9958 19.9786C94.7439 20.112 94.4476 20.0897 94.218 19.9194C93.9883 19.7564 93.8772 19.4749 93.9217 19.1934L95.0106 12.8376L90.403 8.34109C90.203 8.14108 90.1289 7.85218 90.2178 7.5855C90.3067 7.31883 90.5363 7.11882 90.8178 7.08178L97.1959 6.15581L100.048 0.377794C100.3 -0.125931 101.129 -0.125931 101.374 0.377794L104.226 6.15581L110.604 7.08178C110.885 7.12622 111.115 7.31883 111.204 7.5855C111.293 7.85218 111.219 8.14108 111.011 8.34109Z" fill="#FF9C00"/>
<path id="Vector_6" d="M111.011 8.34109L106.396 12.8376L107.485 19.1934C107.53 19.4749 107.419 19.749 107.189 19.9194C107.063 20.0157 106.907 20.0601 106.752 20.0601C106.633 20.0601 106.515 20.0305 106.404 19.9786L100.7 16.9785L94.9958 19.9786C94.7439 20.112 94.4476 20.0897 94.218 19.9194C93.9883 19.7564 93.8772 19.4749 93.9217 19.1934L95.0106 12.8376L90.403 8.34109C90.203 8.14108 90.1289 7.85218 90.2178 7.5855C90.3067 7.31883 90.5363 7.11882 90.8178 7.08178L97.1959 6.15581L100.048 0.377794C100.3 -0.125931 101.129 -0.125931 101.374 0.377794L104.226 6.15581L110.604 7.08178C110.885 7.12622 111.115 7.31883 111.204 7.5855C111.293 7.85218 111.219 8.14108 111.011 8.34109Z" fill="#FF9C00"/>
</g>
<g id="Group_5">
<path id="Vector_7" d="M141.071 8.34109L136.456 12.8376L137.545 19.1934C137.589 19.4749 137.478 19.749 137.248 19.9194C137.123 20.0157 136.967 20.0601 136.811 20.0601C136.693 20.0601 136.574 20.0305 136.463 19.9786L130.759 16.9785L125.055 19.9786C124.804 20.112 124.507 20.0897 124.278 19.9194C124.048 19.7564 123.937 19.4749 123.981 19.1934L125.07 12.8376L120.463 8.34109C120.263 8.14108 120.188 7.85218 120.277 7.5855C120.366 7.31883 120.596 7.11882 120.877 7.08178L127.255 6.15581L130.107 0.377794C130.359 -0.125931 131.189 -0.125931 131.433 0.377794L134.285 6.15581L140.663 7.08178C140.945 7.12622 141.175 7.31883 141.263 7.5855C141.352 7.85218 141.278 8.14108 141.071 8.34109Z" fill="#FF9C00"/>
<path id="Vector_8" d="M141.071 8.34109L136.456 12.8376L137.545 19.1934C137.589 19.4749 137.478 19.749 137.248 19.9194C137.123 20.0157 136.967 20.0601 136.811 20.0601C136.693 20.0601 136.574 20.0305 136.463 19.9786L130.759 16.9785L125.055 19.9786C124.804 20.112 124.507 20.0897 124.278 19.9194C124.048 19.7564 123.937 19.4749 123.981 19.1934L125.07 12.8376L120.463 8.34109C120.263 8.14108 120.188 7.85218 120.277 7.5855C120.366 7.31883 120.596 7.11882 120.877 7.08178L127.255 6.15581L130.107 0.377794C130.359 -0.125931 131.189 -0.125931 131.433 0.377794L134.285 6.15581L140.663 7.08178C140.945 7.12622 141.175 7.31883 141.263 7.5855C141.352 7.85218 141.278 8.14108 141.071 8.34109Z" fill="#FF9C00"/>
<path id="Vector_9" d="M141.071 8.34109L136.456 12.8376L137.545 19.1934C137.589 19.4749 137.478 19.749 137.248 19.9194C137.123 20.0157 136.967 20.0601 136.811 20.0601C136.693 20.0601 136.574 20.0305 136.463 19.9786L130.759 16.9785L125.055 19.9786C124.804 20.112 124.507 20.0897 124.278 19.9194C124.048 19.7564 123.937 19.4749 123.981 19.1934L125.07 12.8376L120.463 8.34109C120.263 8.14108 120.188 7.85218 120.277 7.5855C120.366 7.31883 120.596 7.11882 120.877 7.08178L127.255 6.15581L130.107 0.377794C130.359 -0.125931 131.189 -0.125931 131.433 0.377794L134.285 6.15581L140.663 7.08178C140.945 7.12622 141.175 7.31883 141.263 7.5855C141.352 7.85218 141.278 8.14108 141.071 8.34109Z" fill="url(#paint0_linear_103_955)"/>
</g>
</g>
<defs>
<linearGradient id="paint0_linear_103_955" x1="130.5" y1="9.53223" x2="131" y2="9.53223" gradientUnits="userSpaceOnUse">
<stop offset="0.9999" stop-color="#FAAF38"/>
<stop offset="1" stop-color="#D8D8D8"/>
</linearGradient>
</defs>
</svg>
