<svg width="10" height="20" viewBox="0 0 10 20" fill="none" xmlns="http://www.w3.org/2000/svg">
<path d="M6.24999 0C4.17891 0 2.5 1.83156 2.5 4.09091V7.27273H0.416666C0.18655 7.27273 0 7.47624 0 7.72727V11.3636C0 11.6146 0.18655 11.8182 0.416666 11.8182H2.5V19.5455C2.5 19.7965 2.68655 20 2.91666 20H6.24999C6.48007 20 6.66666 19.7965 6.66666 19.5455V11.8182H8.74999C8.94115 11.8182 9.10782 11.6763 9.15424 11.4739L9.98757 7.83752C10.0187 7.70173 9.99074 7.55786 9.91174 7.44754C9.83274 7.33722 9.71165 7.27273 9.58332 7.27273H6.66666V5.90909C6.66666 5.15597 7.22632 4.54545 7.91666 4.54545H9.58332C9.8134 4.54545 9.99999 4.34195 9.99999 4.09091V0.454545C9.99999 0.203509 9.8134 0 9.58332 0H6.24999Z" fill="#2D2D2E"/>
</svg>
