<svg width="372" height="98" viewBox="0 0 372 98" fill="none" xmlns="http://www.w3.org/2000/svg">
<path fill-rule="evenodd" clip-rule="evenodd" d="M366.678 23.8189C360.758 20.9296 352.056 19.087 343.246 17.814C343.106 16.6567 342.608 15.5169 341.665 14.417C337.191 9.23117 326.2 7.12242 316.294 5.7708C316.063 5.58817 315.695 5.42698 315.166 5.35821C254.549 -3.09359 189.97 -1.49432 132.24 10.5114C127.028 11.5992 121.863 12.7711 116.771 14.0395C94.1191 18.5256 72.187 24.1554 51.3576 30.9236C29.8956 37.8951 3.07543 47.952 0.918797 63.3805C-1.02523 77.2291 19.6679 86.7462 40.5692 91.4092C71.1778 98.2299 104.868 98.8298 137.684 95.807C148.736 95.8332 159.77 95.4424 170.713 94.6928C201.008 92.6142 230.377 87.781 258.255 81.3858C284.673 75.3224 311.173 68.034 333.754 58.4746C345.398 53.5463 355.972 47.7421 363.556 40.8379C368.92 35.9548 376.573 28.647 366.665 23.8068L366.678 23.8189ZM300.049 5.71346C304.895 6.54813 310.995 7.55948 318.597 8.78754C324.489 9.73573 331.498 11.0368 335.594 13.8229C337.142 14.8738 337.986 15.9958 338.336 17.1687C333.437 16.5713 328.659 16.1069 324.471 15.7242C307.5 14.1659 290.426 14.2608 273.598 15.8363C271.04 16.0774 272.076 18.2029 274.646 17.962C288.892 16.6391 303.416 16.3568 317.88 17.3832C324.311 17.8407 331.43 18.4769 338.432 19.4326C337.766 22.9333 333.719 26.5536 330.734 29.3351C323.574 36.0086 314.479 41.9219 304.394 47.2228C283.865 58.0205 259.486 66.6913 234.686 74.0927C202.409 83.7209 166.817 91.0292 130.21 93.5811C120.579 93.3891 110.954 92.8759 101.422 91.9832C78.8608 89.863 49.1525 85.8797 37.2842 73.9569C23.2823 59.8894 48.6057 43.7104 66.2422 34.7077C79.5724 27.8919 95.0141 22.375 111.449 17.8994C152.727 9.21409 196.651 4.43251 241.106 3.80356C242.723 3.78414 243.427 2.98683 243.255 2.28135C262.298 2.45896 281.36 3.63703 300.086 5.73791L300.049 5.71346ZM65.6373 92.6801C43.2151 90.3481 13.2682 84.4914 6.58083 70.4444C-1.41542 53.6481 28.9103 41.3426 50.747 34.1038C60.8714 30.7444 71.2868 27.6758 81.9074 24.8609C75.0272 27.5149 68.5005 30.4132 62.4134 33.5693C45.2593 42.4971 23.3996 56.7006 30.5681 70.7441C36.9016 83.1537 62.517 89.1134 83.4725 92.0866C90.8185 93.1316 98.2427 93.9398 105.72 94.5347C92.3956 94.6474 79.0094 94.0685 65.6495 92.6923L65.6373 92.6801ZM363.136 36.6396C360.343 39.7103 356.852 42.5782 352.931 45.272C345.041 50.6826 335.339 55.2757 324.993 59.298C283.822 75.2837 232.886 86.7651 182.585 91.5306C175.369 92.2143 168.082 92.7419 160.761 93.1023C182.019 90.0682 202.485 85.7225 221.05 80.7959C249.801 73.1659 277.919 63.6674 301.919 51.9301C312.631 46.6879 322.479 40.8353 330.538 34.237C335.068 30.53 341.87 25.2671 343.095 20.1331C349.356 21.1473 355.353 22.4426 360.479 24.1513C370.008 27.3418 367.198 32.1861 363.148 36.6517L363.136 36.6396Z" fill="#EAFF80"/>
</svg>
