<svg width="331" height="80" viewBox="0 0 331 80" fill="none" xmlns="http://www.w3.org/2000/svg">
<path d="M44.8279 77.7743C76.4094 80.2878 108.159 80.6685 139.797 78.9606C170.715 77.2936 201.645 73.7463 232.027 67.7069C246.456 64.8387 260.795 61.3818 274.819 56.9296C286.943 53.0761 298.975 48.4939 310.082 42.2455C315.298 39.3164 320.539 36.0569 324.816 31.8419C328.453 28.2666 332.176 22.4897 329.229 17.3936C327.072 13.6657 322.629 11.5126 318.805 9.96012C313.11 7.64585 307.038 6.24736 301.01 5.12824C286.397 2.39855 271.431 1.4144 256.59 0.838391C240.94 0.234616 225.27 0.381209 209.63 1.14743C178.939 2.65096 148.384 6.50272 118.152 11.9298C98.8422 15.3917 79.6316 19.4722 60.5487 24.0608C45.5315 27.668 30.237 31.4593 15.9971 37.535C11.3763 39.505 6.00072 41.8264 2.77118 45.8556C1.52442 47.4046 0.465499 49.4709 0.756571 51.5267C1.01402 53.343 2.36456 54.6928 3.80994 55.7011C6.66057 57.7083 10.1986 58.875 13.5226 59.7749C19.7789 61.4706 26.2904 62.1824 32.7478 62.625C47.6245 63.6205 62.672 63.3433 77.5528 62.6185C85.238 62.2424 92.9002 61.6667 100.549 60.8611C101.677 60.7441 102.868 57.4557 101.749 57.5726C86.4019 59.1845 70.9608 59.8877 55.5291 59.8907C42.3777 59.8993 28.6584 60.0464 15.8371 56.7496C12.4033 55.8613 8.80563 54.7155 5.80562 52.7506C5.51279 52.565 5.27693 52.1785 5.06955 51.6916C4.03222 49.227 4.99923 46.3721 7.21693 44.8784C8.16731 44.234 9.16784 43.5988 9.92186 43.1974C15.9348 40.0362 22.4315 37.7779 28.8807 35.6903C36.3649 33.267 43.9645 31.192 51.5961 29.2566C67.0785 25.3224 82.7186 21.8959 98.3728 18.7492C127.448 12.8995 156.813 8.40567 186.379 5.89901C216.444 3.3548 246.73 2.87749 276.802 5.44376C289.911 6.56598 303.564 8.01001 315.956 12.6935C319.859 14.1747 324.449 16.1356 326.894 19.7191C330.739 25.3617 323.766 30.4876 319.68 33.4396C310.281 40.2423 299.474 45.106 288.674 49.1995C275.697 54.116 262.302 57.8787 248.799 61.0429C219.608 67.8644 189.737 71.9758 159.88 74.3869C130.023 76.7979 98.8076 77.3493 68.2821 75.89C60.8459 75.5322 53.4278 75.0542 46.0081 74.4661C44.9367 74.3823 43.5559 77.6535 44.8076 77.7546L44.8279 77.7743Z" fill="#EAFF80"/>
</svg>
