<svg width="30" height="30" viewBox="0 0 30 30" fill="none" xmlns="http://www.w3.org/2000/svg">
<path d="M24.3742 2.8125H19.6867C19.4381 2.8125 19.1996 2.91127 19.0238 3.08709C18.848 3.2629 18.7492 3.50136 18.7492 3.75C18.7492 3.99864 18.848 4.2371 19.0238 4.41291C19.1996 4.58873 19.4381 4.6875 19.6867 4.6875H22.1113L19.1641 7.63477C18.2986 6.82827 17.2547 6.23792 16.1176 5.91193C14.9805 5.58593 13.7823 5.53355 12.6211 5.75905C11.4598 5.98455 10.3684 6.48153 9.4359 7.20942C8.50341 7.93731 7.75632 8.87545 7.25565 9.94721C6.75498 11.019 6.51493 12.194 6.55511 13.3762C6.59529 14.5585 6.91455 15.7145 7.48682 16.7498C8.0591 17.7851 8.86815 18.6704 9.84791 19.3333C10.8277 19.9962 11.9503 20.4179 13.1242 20.5641V22.5H10.3117C10.0631 22.5 9.82461 22.5988 9.6488 22.7746C9.47298 22.9504 9.37421 23.1889 9.37421 23.4375C9.37421 23.6861 9.47298 23.9246 9.6488 24.1004C9.82461 24.2762 10.0631 24.375 10.3117 24.375H13.1242V27.1875C13.1242 27.4361 13.223 27.6746 13.3988 27.8504C13.5746 28.0262 13.8131 28.125 14.0617 28.125C14.3103 28.125 14.5488 28.0262 14.7246 27.8504C14.9004 27.6746 14.9992 27.4361 14.9992 27.1875V24.375H17.8117C18.0603 24.375 18.2988 24.2762 18.4746 24.1004C18.6504 23.9246 18.7492 23.6861 18.7492 23.4375C18.7492 23.1889 18.6504 22.9504 18.4746 22.7746C18.2988 22.5988 18.0603 22.5 17.8117 22.5H14.9992V20.5641C16.2558 20.4071 17.4522 19.9341 18.4764 19.1892C19.5006 18.4444 20.3192 17.4521 20.8558 16.3049C21.3923 15.1578 21.6293 13.8934 21.5445 12.6299C21.4598 11.3663 21.0561 10.1449 20.3711 9.07969L23.4367 6.01289V8.4375C23.4367 8.68614 23.5355 8.9246 23.7113 9.10041C23.8871 9.27623 24.1256 9.375 24.3742 9.375C24.6229 9.375 24.8613 9.27623 25.0371 9.10041C25.2129 8.9246 25.3117 8.68614 25.3117 8.4375V3.75C25.3117 3.50136 25.2129 3.2629 25.0371 3.08709C24.8613 2.91127 24.6229 2.8125 24.3742 2.8125ZM14.0617 18.75C12.9492 18.75 11.8617 18.4201 10.9366 17.802C10.0116 17.1839 9.29063 16.3054 8.86489 15.2776C8.43914 14.2498 8.32775 13.1188 8.54479 12.0276C8.76183 10.9365 9.29756 9.9342 10.0842 9.14752C10.8709 8.36085 11.8732 7.82513 12.9643 7.60808C14.0555 7.39104 15.1865 7.50244 16.2143 7.92818C17.2421 8.35392 18.1206 9.07489 18.7387 9.99992C19.3568 10.9249 19.6867 12.0125 19.6867 13.125C19.6852 14.6164 19.092 16.0462 18.0375 17.1008C16.9829 18.1553 15.5531 18.7484 14.0617 18.75Z" fill="#015B6D"/>
</svg>
