<svg width="124" height="25" viewBox="0 0 124 25" fill="none" xmlns="http://www.w3.org/2000/svg">
<path d="M123.357 3.94103C123.268 3.96007 123.189 3.9795 123.099 3.99854L123.077 3.99776C120.123 4.6154 117.193 5.22274 114.251 5.8297C92.2322 10.3723 34.6689 21.1697 34.7249 21.1606C52.455 20.3604 96.5107 18.0954 109.708 17.5028C110.958 17.4467 111.997 20.5767 110.545 20.648C106.694 20.8129 102.842 20.9889 99.0008 21.1652C82.1077 21.9392 65.2262 22.7025 48.3442 23.4769C37.7373 23.9604 27.1303 24.4438 16.5234 24.9272C15.2956 24.9731 14.2163 22.0412 15.6857 21.782C24.9269 20.1864 34.1505 18.457 43.3645 16.683C61.5344 13.1814 103.951 5.18171 109.193 4.15607C109.237 4.15763 109.229 4.07971 109.195 4.08962C99.2166 4.45085 55.0378 6.41215 42.8494 6.85145C33.1947 7.2018 23.5403 7.54108 13.8855 7.89144C9.84543 8.02757 5.80492 8.17478 1.76441 8.32199C0.503192 8.36666 -0.535689 5.23661 0.915192 5.18748C0.993515 5.17912 1.06032 5.18145 1.13864 5.1731C2.67287 4.97163 4.30839 5.06201 5.85986 5.00531C9.197 4.88898 12.5341 4.77265 15.8828 4.64563C25.9726 4.28829 36.0623 3.93095 46.1521 3.57361C57.8159 3.14926 69.4906 2.73638 81.1541 2.3231C90.8088 1.97275 100.463 1.63347 110.118 1.28312C114.158 1.14698 118.199 0.99977 122.239 0.852559C123.31 0.823432 124.537 3.6939 123.346 3.94064L123.357 3.94103Z" fill="#DDF466"/>
</svg>
