<svg width="71" height="64" viewBox="0 0 71 64" fill="none" xmlns="http://www.w3.org/2000/svg">
<g clip-path="url(#clip0_6_1541)">
<path d="M70.5232 37.8145C70.4892 37.7804 70.4483 37.7464 70.4075 37.7192L69.107 36.8477L67.2415 35.5881L65.6347 34.5055C65.4713 34.3966 65.3964 34.206 65.4372 34.0221L65.587 33.3345L65.9887 31.4621C66.0023 31.4009 66.0228 31.3396 66.0636 31.2919C66.0977 31.2306 66.1521 31.183 66.2134 31.1489L69.1002 29.4468C69.3521 29.2902 69.5223 29.0179 69.5428 28.7183L69.6517 26.8119C69.6653 26.5736 69.5836 26.3217 69.4202 26.1447C69.2568 25.9609 69.0185 25.8519 68.7734 25.8383L67.6023 25.7906C67.473 25.7906 67.3504 25.7362 67.2687 25.634C67.1802 25.5387 67.1394 25.4094 67.1462 25.28L67.2687 23.6664C67.2892 23.2579 67.0372 22.8766 66.6355 22.754L62.5777 21.4196C62.4755 21.3855 62.387 21.3174 62.3258 21.2221L58.1794 14.7677C58.1045 14.6451 58.0841 14.5089 58.1249 14.3728L58.9555 11.7447C59.1189 11.2272 59.01 10.6757 58.6628 10.2604L57.8253 9.24596C57.7232 9.1166 57.6892 8.94638 57.7504 8.78979L58.5062 6.72681C58.5947 6.48851 58.5743 6.21617 58.4517 5.99149C58.3223 5.76 58.1113 5.5966 57.8662 5.53532L56.0143 5.0383H53.4134C53.3385 5.0383 53.2704 5.02468 53.2092 4.99745L51.0441 3.96936C50.9555 3.92851 50.8875 3.86723 50.833 3.78553L49.7777 2.02894C49.6075 1.74298 49.3011 1.57277 48.9402 1.57277C48.9198 1.57277 44.3104 1.78383 44.3104 1.78383C44.2764 1.78383 44.2219 1.77702 44.2219 1.77702L34.5811 0.013617C34.5266 0 34.4653 0 34.4109 0C34.0636 0 33.7436 0.18383 33.587 0.497021L32.2321 3.13192C32.1436 3.29532 31.9802 3.39745 31.8032 3.39745C31.776 3.39745 31.7079 3.37702 31.7079 3.37702L24.593 1.81106C24.5249 1.79745 24.45 1.79064 24.3887 1.79064C23.9734 1.79064 23.6126 2.06298 23.4968 2.45106L22.5777 5.55575C22.5368 5.69872 22.4143 5.82128 22.2645 5.86894L17.6415 7.32596C17.4917 7.37362 17.3623 7.45532 17.2602 7.56426L13.57 11.3157C13.4747 11.4043 13.3589 11.4519 13.2296 11.4519C13.1275 11.4519 13.0321 11.4179 12.9504 11.3634L11.1734 10.0766C10.8943 9.87915 10.5675 9.77702 10.227 9.77702C9.77767 9.77702 9.34873 9.96085 9.04235 10.2877L6.61852 12.8749C6.50277 12.9974 6.42107 13.1472 6.38703 13.3174L5.50192 17.8043C5.46788 17.954 5.37256 18.0834 5.23639 18.1447L3.58873 18.9209C3.52065 18.9481 3.45256 18.9617 3.36405 18.9617C3.35724 18.9617 2.56745 18.8936 1.0015 18.7711H0.926603C0.647455 18.7711 0.39554 18.8868 0.218518 19.0979C0.02788 19.3226 -0.0470136 19.6357 0.0346885 19.9217L0.742774 22.5838C0.933412 23.2715 1.57341 23.7549 2.29511 23.7549C2.38362 23.7549 2.47214 23.7481 2.56065 23.7345L3.59554 23.5643V24.286C3.59554 24.4902 3.67043 24.6877 3.78618 24.8374L5.05937 26.4851C5.15469 26.6213 5.18873 26.7847 5.12746 26.9345C5.06618 27.0911 4.94362 27.1932 4.78022 27.234L3.79299 27.4451L3.60235 27.5132L1.17171 28.7183C0.933412 28.8272 0.756391 29.0315 0.695114 29.2766C0.613412 29.5217 0.647455 29.794 0.783625 30.0119L1.78448 31.6528C1.84575 31.7481 1.86618 31.8502 1.85256 31.9592L1.61426 33.9064C1.54618 34.4783 1.79128 35.0366 2.25426 35.377L3.47299 36.2757C3.62958 36.3779 3.8066 36.4323 3.99043 36.4323C4.17426 36.4323 4.35809 36.3779 4.50788 36.2757L8.9266 33.6272C8.96065 33.6068 8.99469 33.5932 9.04235 33.5796L14.564 31.9523C14.6049 31.9319 14.6458 31.9319 14.7002 31.9319C14.8909 31.9319 15.0679 32.0477 15.136 32.2247L16.5862 35.8604C16.7292 36.2145 17.0628 36.4392 17.4441 36.4392C17.5462 36.4392 17.6415 36.4187 17.7368 36.3915L23.5649 34.4715C23.6126 34.4579 23.6602 34.4511 23.7147 34.4511C23.8032 34.4511 23.8985 34.4783 23.9734 34.526L23.9938 34.5396L24.7019 34.9889C24.8449 35.0774 24.9198 35.2204 24.9198 35.3838V35.7174C24.9198 35.8672 24.8517 36.017 24.7224 36.0987L24.0687 36.5481C23.9802 36.6094 23.8917 36.6366 23.7896 36.6366H22.6594C22.1487 36.6366 21.7402 37.0451 21.7402 37.5489L21.7198 38.9719L21.6858 41.3685V41.457C21.6858 41.7157 21.4611 41.92 21.2092 41.92H20.6236C20.1606 41.92 19.7658 42.2536 19.7113 42.7098L19.5955 43.6153L19.3028 45.9575L19.2551 46.3115C19.2211 46.6315 19.3504 46.9311 19.5887 47.1285L23.4832 50.3081L24.6951 51.3021C24.8585 51.4247 25.0628 51.4996 25.2738 51.4996H27.5002C27.6092 51.4996 27.7181 51.5404 27.7998 51.6017L32.5385 55.3668C32.6543 55.4553 32.7836 55.5234 32.9334 55.5506L35.2483 56.0068C35.3709 56.0272 35.4662 56.0885 35.5411 56.1838L35.936 56.7013C36.2424 57.103 36.7258 57.3413 37.2296 57.3413C37.4134 57.3413 37.5972 57.314 37.7675 57.2528L38.6594 56.9396C38.7138 56.9192 38.7615 56.9123 38.816 56.9123C38.9521 56.9123 39.0815 56.9736 39.17 57.0689L40.3683 58.3898C40.5453 58.5872 40.7972 58.703 41.0628 58.703C41.1104 58.703 41.1513 58.6962 41.2058 58.6962L45.9104 57.9609L45.9649 58.0902L44.6168 59.1183C44.2423 59.4111 44.0041 59.8468 43.9904 60.3234L43.8951 63.04C43.8815 63.36 44.0381 63.6596 44.3036 63.8366C44.4534 63.9319 44.6236 63.9932 44.8075 63.9932H44.8347C44.9709 64 45.107 63.9592 45.2296 63.9047L48.9334 62.1685C48.9947 62.1413 49.056 62.1277 49.1785 62.1277C49.1921 62.1277 55.1155 62.9243 55.1155 62.9243C55.1836 62.9379 55.2585 62.9379 55.3266 62.9379C55.8032 62.9379 56.2526 62.7268 56.5589 62.366L57.8117 60.8885C57.8866 60.8136 57.9751 60.7523 58.084 60.7319L60.0994 60.3302C60.5896 60.2349 61.0117 59.9081 61.2296 59.4587L62.4415 56.96C62.6117 56.6809 62.6049 56.3336 62.4415 56.0409L61.4475 54.4749C61.2364 54.1345 60.9028 53.8894 60.5079 53.7804L59.0509 53.3651C58.9079 53.3174 58.7921 53.2221 58.7377 53.086L58.4653 52.4391C58.3768 52.2077 58.4721 51.9489 58.7036 51.8332L59.9428 51.234C60.1743 51.1183 60.3785 50.9481 60.5351 50.7506L62.8023 47.8026L63.3743 47.0672C63.5377 46.8562 63.5921 46.5838 63.5377 46.3183C63.4764 46.0596 63.3062 45.8349 63.0747 45.7123L62.7751 45.5557L66.3155 43.4043L66.4721 43.2749L67.1802 42.5532L70.5572 39.1149C70.7275 38.9379 70.8092 38.7064 70.8092 38.4545C70.8024 38.2094 70.707 37.9847 70.5232 37.8145ZM68.1198 38.8766C68.0994 38.9243 68.0721 38.9651 68.0381 38.9991L67.0645 39.9932L65.2466 41.8519C65.2466 41.8519 65.1853 41.9132 65.1649 41.92H65.1581L60.4262 44.8749C60.147 45.0383 59.9836 45.3515 59.9904 45.6715C60.0041 46.0051 60.1879 46.2979 60.4806 46.4545L61.2296 46.8426L59.1326 49.5523C59.0849 49.6136 59.0236 49.6613 58.9623 49.6885L56.6611 50.7915C56.2253 50.9957 56.0143 51.5132 56.2049 51.9626L57.0764 54.114C57.267 54.577 57.6415 54.9174 58.1249 55.0468L59.6772 55.4894C59.7998 55.5234 59.8951 55.5915 59.9564 55.6936L60.4126 56.4085C60.4943 56.5515 60.5011 56.7149 60.433 56.8647L59.7181 58.3285C59.65 58.4579 59.5206 58.5532 59.3845 58.5804L57.2194 59.0094C57.0151 59.057 56.8381 59.166 56.7019 59.3226L55.3538 60.8885C55.2653 60.9906 55.1292 61.0519 54.9317 61.0519L48.9947 60.2485C48.9538 60.2485 48.9198 60.2485 48.8789 60.2485C48.7428 60.2485 48.5998 60.2826 48.4772 60.337L46.4687 61.2766C46.4075 61.3038 46.3394 61.3174 46.2713 61.3174C46.1351 61.3174 46.0126 61.263 45.924 61.1677C45.8628 61.0996 45.7879 60.9838 45.7947 60.8272V60.7115C45.8015 60.5617 45.8696 60.4392 45.9785 60.3506L48.4092 58.5055C48.627 58.3353 48.7632 58.0834 48.77 57.8043C48.7768 57.5387 48.6679 57.28 48.4636 57.0962L47.4628 56.2043C47.2926 56.0545 47.0815 55.9728 46.85 55.9728H46.8296C46.7887 55.9728 46.7411 55.9796 46.7002 55.9796L41.5938 56.7762C41.4577 56.7762 41.3283 56.7081 41.2398 56.6128L40.2458 55.503C39.9394 55.1626 39.4968 54.9651 39.0406 54.9651C38.8568 54.9651 38.673 54.9923 38.5028 55.0536L37.6449 55.36C37.5972 55.3804 37.5496 55.3872 37.4883 55.3872C37.3385 55.3872 37.2024 55.3192 37.107 55.1966L36.7053 54.6587C36.5692 54.4681 36.3649 54.3387 36.1334 54.2979L33.6279 53.8077C33.553 53.794 33.4781 53.76 33.4236 53.7123L28.7734 50.0289C28.4806 49.8043 28.1266 49.6749 27.7589 49.6749H25.7845C25.6824 49.6749 25.5734 49.6409 25.4849 49.5728L21.3658 46.2162C21.2364 46.1072 21.1683 45.9575 21.1955 45.794L21.3998 44.1668C21.4338 43.9285 21.6313 43.7515 21.8764 43.7515H22.6049C23.1155 43.7515 23.5309 43.343 23.5309 42.846L23.5853 40.034L23.6058 38.9243C23.6126 38.6587 23.8236 38.4545 24.0823 38.4545C24.416 38.4545 24.736 38.3523 25.0015 38.1617L26.1317 37.3719C26.2679 37.2766 26.3904 37.1609 26.4858 37.0247C26.6968 36.7523 26.8126 36.4187 26.8126 36.0647V35.0162C26.8126 34.7234 26.7309 34.4375 26.5811 34.1923C26.4585 33.9881 26.2883 33.8111 26.0772 33.6749L25.0423 33.0077L24.7428 32.817C24.4841 32.6468 24.1845 32.5583 23.8713 32.5583C23.7011 32.5583 23.5241 32.5855 23.3606 32.64L18.4653 34.2604C18.4245 34.2809 18.37 34.2877 18.3155 34.2877C18.1249 34.2877 17.9479 34.1719 17.8798 33.9881L16.4364 30.366C16.2934 30.0187 15.9598 29.794 15.5785 29.794C15.49 29.794 15.4015 29.8077 15.313 29.8349L8.42277 31.8434L8.07554 32L4.35128 34.2809C4.27639 34.3285 4.18788 34.3489 4.09937 34.3489C3.99043 34.3489 3.89511 34.3149 3.81341 34.2604L3.71128 34.1787C3.56831 34.0834 3.50022 33.9132 3.52065 33.743L3.73171 31.9796C3.77256 31.6255 3.69767 31.2647 3.51384 30.9583L3.1666 30.3864C3.09171 30.2774 3.07809 30.1413 3.11214 30.0187C3.14618 29.8894 3.23469 29.7872 3.35724 29.726L4.2832 29.2698C4.32405 29.2562 4.3649 29.2426 4.39894 29.2357L7.35384 28.5957C7.66022 28.5277 7.91214 28.3098 8.02107 28.0102C8.13001 27.7174 8.08235 27.3906 7.89171 27.1387L5.57001 24.143C5.50873 24.0613 5.46788 23.9592 5.46788 23.857V22.5089C5.46788 22.2434 5.35214 21.9915 5.14107 21.8145C4.97086 21.6647 4.7598 21.5898 4.54192 21.5898C4.48745 21.5898 4.4398 21.5966 4.39214 21.6034L2.83299 21.8553C2.61511 21.8553 2.42448 21.7192 2.37001 21.5149L2.33597 21.3719C2.28831 21.2289 2.31554 21.086 2.41086 20.9634C2.50618 20.8477 2.64235 20.7796 2.81256 20.7796L3.37767 20.8204H3.51384C3.74533 20.8204 3.97682 20.7728 4.19469 20.6774L6.31894 19.6834C6.77511 19.4723 7.10873 19.0434 7.21086 18.5532L8.08916 14.1072C8.10958 14.0255 8.15043 13.937 8.21171 13.8757L9.93426 12.0238C10.0228 11.9353 10.1453 11.874 10.2815 11.874C10.3836 11.874 10.4721 11.9149 10.5606 11.9694L12.8483 13.617C13.0049 13.726 13.1887 13.7872 13.3862 13.7872C13.6313 13.7872 13.8696 13.6919 14.0466 13.5149L18.3428 9.15064C18.3972 9.08936 18.4653 9.04851 18.5402 9.02809L23.5377 7.44851C23.8236 7.35319 24.0551 7.1217 24.1368 6.83574L24.9062 4.26213C24.9606 4.06468 25.1513 3.9217 25.3624 3.9217C25.3964 3.9217 25.4304 3.92851 25.4645 3.93532L32.3615 5.44681C32.4228 5.46043 32.4841 5.46723 32.5589 5.46723C32.9062 5.46723 33.2262 5.2766 33.3828 4.97021L34.7581 2.28766C34.8398 2.13787 35.0032 2.03574 35.187 2.03574C35.2143 2.03574 35.2687 2.03574 35.2687 2.03574L43.9224 3.62213L44.3649 3.64936L48.2185 3.46553C48.3887 3.46553 48.5453 3.55404 48.627 3.69702L49.4509 5.09957C49.5462 5.25617 49.6755 5.38553 49.8458 5.46723L52.5487 6.74043C52.7666 6.84936 53.0049 6.90383 53.25 6.90383H55.6398C55.6398 6.90383 55.7215 6.91064 55.7555 6.91745L56.4092 7.08085L55.7351 8.96681C55.6126 9.27319 55.6738 9.62723 55.8917 9.87915L56.9811 11.1523C57.09 11.2749 57.1241 11.4383 57.0764 11.5949L56.1641 14.4817C56.0892 14.7336 56.13 15.006 56.2662 15.2306L61.0321 22.6519C61.1479 22.8289 61.3181 22.9651 61.5224 23.0264L65.0151 24.1498C65.2262 24.2247 65.3555 24.4153 65.3419 24.6332L65.1921 26.5872C65.1785 26.8255 65.2602 27.0502 65.4168 27.234C65.587 27.4315 65.8321 27.5404 66.1113 27.5609L67.7862 27.6426L67.7726 27.8877C67.7589 28.0511 67.6704 28.1872 67.5411 28.2689L64.77 29.903C64.6611 29.9711 64.5658 30.0528 64.4909 30.1549C64.4228 30.2502 64.3683 30.366 64.3343 30.4885L63.953 32.1634L63.4083 34.5532C63.3402 34.9072 63.49 35.2613 63.7896 35.4655L66.1521 37.0655L67.9564 38.2843C68.0789 38.366 68.147 38.4885 68.1606 38.6247C68.1743 38.7132 68.1607 38.8017 68.1198 38.8766Z" fill="#035C6D"/>
<path d="M68.1605 38.6246C68.1741 38.7131 68.1605 38.8016 68.1196 38.8765C68.0992 38.9241 68.072 38.965 68.0379 38.999L67.0643 39.9931L65.2465 41.8518C65.2465 41.8518 65.1852 41.9131 65.1648 41.9199H65.1579L60.426 44.8748C60.1469 45.0382 59.9835 45.3514 59.9903 45.6714C60.0039 46.005 60.1877 46.2978 60.4805 46.4544L61.2294 46.8424L59.1324 49.5522C59.0848 49.6135 59.0235 49.6612 58.9622 49.6884L56.6609 50.7914C56.2252 50.9956 56.0141 51.5131 56.2048 51.9624L57.0762 54.1139C57.2669 54.5769 57.6413 54.9173 58.1248 55.0467L59.6771 55.4893C59.7996 55.5233 59.895 55.5914 59.9562 55.6935L60.4124 56.4084C60.4941 56.5514 60.5009 56.7148 60.4328 56.8646L59.7179 58.3284C59.6499 58.4578 59.5205 58.5531 59.3843 58.5803L57.2192 59.0093C57.015 59.0569 56.8379 59.1658 56.7018 59.3224L55.3537 60.8884C55.2652 60.9905 55.129 61.0518 54.9316 61.0518L48.9945 60.2484C48.9537 60.2484 48.9196 60.2484 48.8788 60.2484C48.7426 60.2484 48.5996 60.2824 48.4771 60.3369L46.4686 61.2765C46.4073 61.3037 46.3392 61.3173 46.2711 61.3173C46.135 61.3173 46.0124 61.2629 45.9239 61.1675C45.8626 61.0995 45.7877 60.9837 45.7945 60.8271V60.7114C45.8013 60.5616 45.8694 60.439 45.9784 60.3505L48.409 58.5054C48.6269 58.3352 48.763 58.0833 48.7699 57.8041C48.7767 57.5386 48.6677 57.2799 48.4635 57.0961L47.4626 56.2042C47.2924 56.0544 47.0813 55.9727 46.8499 55.9727H46.8294C46.7886 55.9727 46.7409 55.9795 46.7001 55.9795L41.5937 56.7761C41.4575 56.7761 41.3282 56.708 41.2396 56.6127L40.2456 55.5029C39.9392 55.1624 39.4967 54.965 39.0405 54.965C38.8567 54.965 38.6728 54.9922 38.5026 55.0535L37.6448 55.3599C37.5971 55.3803 37.5494 55.3871 37.4882 55.3871C37.3384 55.3871 37.2022 55.319 37.1069 55.1965L36.7052 54.6586C36.569 54.468 36.3648 54.3386 36.1333 54.2978L33.6277 53.8076C33.5528 53.7939 33.4779 53.7599 33.4235 53.7122L28.7733 50.0288C28.4805 49.8041 28.1265 49.6748 27.7588 49.6748H25.7843C25.6822 49.6748 25.5733 49.6407 25.4848 49.5727L21.3656 46.2161C21.2362 46.1071 21.1682 45.9573 21.1954 45.7939L21.3996 44.1667C21.4337 43.9284 21.6311 43.7514 21.8762 43.7514H22.6048C23.1154 43.7514 23.5307 43.3429 23.5307 42.8458L23.5852 40.0339L23.6056 38.9241C23.6124 38.6586 23.8235 38.4544 24.0822 38.4544C24.4158 38.4544 24.7358 38.3522 25.0014 38.1616L26.1316 37.3718C26.2677 37.2765 26.3903 37.1607 26.4856 37.0246C26.6967 36.7522 26.8124 36.4186 26.8124 36.0646V35.0161C26.8124 34.7233 26.7307 34.4373 26.5809 34.1922C26.4584 33.988 26.2882 33.811 26.0771 33.6748L25.0422 33.0076L25.6958 32.0476C25.8524 31.8297 26.0499 31.639 26.2882 31.5097L27.5545 30.7948C27.786 30.6654 27.8745 30.3863 27.7656 30.148L27.4388 29.4876C27.3707 29.3514 27.2482 29.2493 27.0984 29.2152L25.5324 28.868C25.1171 28.7727 24.7562 28.5344 24.5111 28.1939L23.3741 26.6076C23.1835 26.3148 23.1562 25.9471 23.3128 25.6407L24.4362 22.9514C24.6337 22.4612 25.0626 22.1003 25.5665 21.9641L27.6567 21.4195C27.7724 21.3922 27.8609 21.3241 27.9358 21.2424L29.1614 19.6152C29.4609 19.2203 29.9171 18.9684 30.4141 18.9412C30.489 18.9344 30.5639 18.9344 30.6388 18.9412C30.6388 18.9412 36.9094 19.4178 36.9162 19.4178C37.0524 19.411 37.1069 19.3905 37.175 19.3565L40.9605 17.3071C41.0831 17.239 41.2192 17.1982 41.3622 17.1846H41.3894C41.5869 17.1846 41.7707 17.2322 41.9341 17.3275C42.2269 17.491 42.4039 17.7973 42.4107 18.131L42.472 20.9905C42.4856 21.4944 42.2677 21.9641 41.8933 22.2978L40.5384 23.4552L40.6065 23.5846L45.5018 22.5293C45.5494 22.5293 45.5971 22.5156 45.6516 22.5156C45.9239 22.502 46.1962 22.6041 46.4005 22.8016L47.7282 24.1156C47.8303 24.211 47.9733 24.2654 48.1094 24.2518C48.1707 24.2518 48.2252 24.2382 48.2728 24.2178L49.192 23.8365C49.369 23.7616 49.5596 23.7207 49.7571 23.7071C50.2813 23.6731 50.8056 23.8978 51.1528 24.2995L51.5954 24.8237C51.6771 24.9122 51.786 24.9735 51.9154 24.9871L54.3733 25.3275C54.5299 25.348 54.666 25.4093 54.8022 25.4978L59.9971 29.1539C60.0924 29.2152 60.2082 29.2561 60.3171 29.2493L62.6592 29.1131C62.8839 29.0995 63.1018 29.1607 63.2788 29.2833L64.4907 30.1616C64.4226 30.2569 64.3682 30.3727 64.3341 30.4952L63.9528 32.1701L63.4082 34.5599C63.3401 34.9139 63.4899 35.268 63.7894 35.4722L66.152 37.0722L67.9562 38.291C68.0788 38.3727 68.1469 38.4952 68.1605 38.6314V38.6246Z" fill="#EAFF80"/>
</g>
<defs>
<clipPath id="clip0_6_1541">
<rect width="70.8085" height="64" fill="white"/>
</clipPath>
</defs>
</svg>
