<svg width="30" height="30" viewBox="0 0 30 30" fill="none" xmlns="http://www.w3.org/2000/svg">
<path d="M25.3125 7.50003H17.2629L21.2883 3.47581C21.4642 3.2999 21.563 3.06131 21.563 2.81253C21.563 2.56375 21.4642 2.32516 21.2883 2.14925C21.1124 1.97334 20.8738 1.87451 20.625 1.87451C20.3762 1.87451 20.1376 1.97334 19.9617 2.14925L15 7.11214L10.0383 2.14925C9.95118 2.06215 9.84777 1.99305 9.73397 1.94591C9.62016 1.89877 9.49818 1.87451 9.375 1.87451C9.25182 1.87451 9.12984 1.89877 9.01603 1.94591C8.90223 1.99305 8.79882 2.06215 8.71172 2.14925C8.53581 2.32516 8.43698 2.56375 8.43698 2.81253C8.43698 3.06131 8.53581 3.2999 8.71172 3.47581L12.7371 7.50003H4.6875C4.19022 7.50003 3.71331 7.69758 3.36167 8.04921C3.01004 8.40084 2.8125 8.87775 2.8125 9.37503V23.4375C2.8125 23.9348 3.01004 24.4117 3.36167 24.7634C3.71331 25.115 4.19022 25.3125 4.6875 25.3125H25.3125C25.8098 25.3125 26.2867 25.115 26.6383 24.7634C26.99 24.4117 27.1875 23.9348 27.1875 23.4375V9.37503C27.1875 8.87775 26.99 8.40084 26.6383 8.04921C26.2867 7.69758 25.8098 7.50003 25.3125 7.50003ZM4.6875 9.37503H16.875V23.4375H4.6875V9.37503ZM25.3125 23.4375H18.75V9.37503H25.3125V23.4375ZM23.4375 13.5938C23.4375 13.8719 23.355 14.1438 23.2005 14.3751C23.046 14.6063 22.8264 14.7866 22.5694 14.893C22.3124 14.9994 22.0297 15.0273 21.7569 14.973C21.4841 14.9188 21.2335 14.7848 21.0369 14.5882C20.8402 14.3915 20.7063 14.1409 20.652 13.8681C20.5978 13.5953 20.6256 13.3126 20.732 13.0556C20.8385 12.7987 21.0187 12.579 21.25 12.4245C21.4812 12.27 21.7531 12.1875 22.0312 12.1875C22.4042 12.1875 22.7619 12.3357 23.0256 12.5994C23.2893 12.8631 23.4375 13.2208 23.4375 13.5938ZM23.4375 19.2188C23.4375 19.4969 23.355 19.7688 23.2005 20.0001C23.046 20.2313 22.8264 20.4116 22.5694 20.518C22.3124 20.6244 22.0297 20.6523 21.7569 20.598C21.4841 20.5438 21.2335 20.4098 21.0369 20.2132C20.8402 20.0165 20.7063 19.7659 20.652 19.4931C20.5978 19.2203 20.6256 18.9376 20.732 18.6806C20.8385 18.4237 21.0187 18.2041 21.25 18.0495C21.4812 17.895 21.7531 17.8125 22.0312 17.8125C22.4042 17.8125 22.7619 17.9607 23.0256 18.2244C23.2893 18.4881 23.4375 18.8458 23.4375 19.2188Z" fill="#015B6D"/>
</svg>
