<svg width="70" height="70" viewBox="0 0 70 70" fill="none" xmlns="http://www.w3.org/2000/svg">
<g clip-path="url(#clip0_6_1520)">
<path d="M35.001 26.373C34.4131 26.373 33.9346 25.8945 33.9346 25.3066V11.7441L33.5244 11.6416C30.9131 10.9648 29.0879 8.61328 29.0879 5.91992C29.0879 2.65918 31.7402 0.00683594 35.001 0.00683594C38.2617 0.00683594 40.9209 2.65918 40.9209 5.91992C40.9209 8.61328 39.0957 10.9648 36.4844 11.6416L36.0742 11.7441V25.3066C36.0742 25.8945 35.5957 26.373 35.0078 26.373H35.001ZM35.001 2.13965C32.916 2.13965 31.2207 3.83496 31.2207 5.91992C31.2207 8.00488 32.916 9.7002 35.001 9.7002C37.0859 9.7002 38.7812 8.00488 38.7812 5.91992C38.7812 3.83496 37.0859 2.13965 35.001 2.13965Z" fill="#015B6D"/>
<path d="M35.001 70C31.7402 70 29.0879 67.3477 29.0879 64.0869C29.0879 61.3936 30.9131 59.042 33.5244 58.3652L33.9346 58.2627V44.7002C33.9346 44.1123 34.4131 43.6338 35.001 43.6338C35.5889 43.6338 36.0674 44.1123 36.0674 44.7002V58.2627L36.4775 58.3652C39.0889 59.042 40.9141 61.3936 40.9141 64.0869C40.9141 67.3477 38.2617 70 34.9941 70H35.001ZM35.001 60.3066C32.916 60.3066 31.2207 62.002 31.2207 64.0869C31.2207 66.1719 32.916 67.8672 35.001 67.8672C37.0859 67.8672 38.7812 66.1719 38.7812 64.0869C38.7812 62.002 37.0859 60.3066 35.001 60.3066Z" fill="#015B6D"/>
<path d="M64.082 40.9131C61.3887 40.9131 59.0371 39.0879 58.3604 36.4766L58.2578 36.0664H43.082C42.4941 36.0664 42.0156 35.5879 42.0156 35C42.0156 34.4121 42.4941 33.9336 43.082 33.9336H58.2578L58.3604 33.5234C59.0371 30.9121 61.3887 29.0869 64.082 29.0869C67.3428 29.0869 70.002 31.7393 70.002 35.0068C70.002 38.2744 67.3496 40.9199 64.082 40.9199V40.9131ZM64.082 31.2197C61.9971 31.2197 60.3018 32.915 60.3018 35C60.3018 37.085 61.9971 38.7803 64.082 38.7803C66.167 38.7803 67.8623 37.085 67.8623 35C67.8623 32.915 66.167 31.2197 64.082 31.2197Z" fill="#015B6D"/>
<path d="M5.91992 40.9131C2.65918 40.9131 0 38.2607 0 35C0 31.7393 2.65234 29.0801 5.91992 29.0801C8.61328 29.0801 10.9648 30.9053 11.6416 33.5166L11.7441 33.9268H28.54C29.1279 33.9268 29.6064 34.4053 29.6064 34.9932C29.6064 35.5811 29.1279 36.0596 28.54 36.0596H11.7441L11.6416 36.4697C10.9648 39.0811 8.61328 40.9062 5.91992 40.9062V40.9131ZM5.91992 31.2197C3.83496 31.2197 2.13965 32.915 2.13965 35C2.13965 37.085 3.83496 38.7803 5.91992 38.7803C8.00488 38.7803 9.7002 37.085 9.7002 35C9.7002 32.915 8.00488 31.2197 5.91992 31.2197Z" fill="#015B6D"/>
<path d="M14.4385 61.4756C12.8594 61.4756 11.3691 60.8603 10.2549 59.7393C9.14062 58.6182 8.52539 57.1348 8.52539 55.5557C8.52539 53.9766 9.14062 52.4932 10.2617 51.3721C11.376 50.2578 12.8594 49.6426 14.4316 49.6426C15.4912 49.6426 16.5371 49.9297 17.4463 50.4629L17.8086 50.6816L27.3994 41.0908C27.6045 40.8926 27.8711 40.7764 28.1582 40.7764C28.4453 40.7764 28.7119 40.8857 28.917 41.0908C29.334 41.5078 29.334 42.1846 28.917 42.6016L19.3262 52.1924L19.5381 52.5547C20.9121 54.8789 20.5361 57.832 18.6289 59.7393C17.5146 60.8535 16.0244 61.4687 14.4453 61.4687L14.4385 61.4756ZM14.3291 51.6934C13.3857 51.6934 12.4834 52.0488 11.7861 52.6846C11.041 53.3682 10.6104 54.2979 10.5693 55.3096C10.5283 56.3213 10.8838 57.2852 11.5674 58.0234C11.6357 58.0986 11.7109 58.1738 11.7861 58.2422C12.4834 58.9394 13.4336 59.3291 14.4385 59.3291C15.4434 59.3291 16.4004 58.9326 17.1113 58.2217C18.5264 56.8066 18.5811 54.5303 17.2412 53.0332L17.2139 52.999L17.1182 52.9238C17.0771 52.8896 17.0635 52.8691 17.043 52.8486L16.9609 52.7529C16.25 52.0625 15.3135 51.6797 14.3223 51.6797L14.3291 51.6934Z" fill="#015B6D"/>
<path d="M41.8373 29.2305C41.5571 29.2305 41.2973 29.1211 41.0922 28.9297C40.6684 28.5195 40.6547 27.8428 41.0649 27.4189L50.7651 17.7188L50.5532 17.3564C49.2065 15.0732 49.5483 12.1475 51.3872 10.2471C52.5151 9.08496 54.0258 8.44238 55.6459 8.44238C57.2661 8.44238 58.6469 9.03027 59.7543 10.1035C60.8891 11.2041 61.5317 12.6738 61.559 14.2529C61.5864 15.832 60.9985 17.3291 59.8979 18.4639C59.85 18.5117 59.8022 18.5596 59.7543 18.6074C58.6469 19.6738 57.1909 20.2617 55.6528 20.2617C54.5932 20.2617 53.5541 19.9814 52.645 19.4414L52.2827 19.2295L42.6166 28.8955C42.4047 29.1143 42.1313 29.2305 41.8442 29.2305H41.8373ZM55.5297 10.6162C54.5454 10.6162 53.6157 10.9922 52.9047 11.6758C51.4077 13.125 51.3666 15.5176 52.809 17.0146L52.8979 17.1035C53.6088 17.7598 54.518 18.1152 55.4682 18.1152C56.5209 18.1152 57.5327 17.6709 58.2504 16.8984C59.4399 15.6064 59.5561 13.665 58.6127 12.2432L58.6606 12.209L58.2436 11.7715C57.5258 11.0264 56.562 10.6162 55.5229 10.6162H55.5297Z" fill="#015B6D"/>
<path d="M28.1634 29.2305C27.8831 29.2305 27.6233 29.1211 27.4183 28.9297L17.7181 19.2295L17.3558 19.4414C16.4466 19.9814 15.4075 20.2617 14.348 20.2617C12.8099 20.2617 11.3538 19.6738 10.2464 18.6074C7.90167 16.3379 7.83331 12.585 10.1028 10.2402C11.2308 9.07812 12.7415 8.43555 14.3616 8.43555C15.9817 8.43555 17.3626 9.02344 18.47 10.0967L18.6136 10.2471C20.4524 12.1475 20.7942 15.0732 19.4476 17.3564L19.2357 17.7188L28.9017 27.3848C29.3323 27.8018 29.346 28.4785 28.9358 28.9023C28.7308 29.1143 28.4573 29.2305 28.1702 29.2305H28.1634ZM11.7708 11.7578C10.2737 13.207 10.2327 15.5996 11.6751 17.0967C12.3929 17.8418 13.3567 18.252 14.3958 18.252C15.4349 18.252 16.3099 17.876 17.0208 17.1924L17.1165 17.0967C17.8069 16.3584 18.1692 15.3945 18.1419 14.3896C18.1077 13.3779 17.6907 12.4482 16.9524 11.751C16.2483 11.0879 15.3323 10.7256 14.3685 10.7256C13.4798 10.7256 12.6321 11.0332 11.9485 11.6006H11.9349L11.7708 11.751V11.7578Z" fill="#015B6D"/>
<path d="M55.5637 61.4824C54.0598 61.4824 52.6379 60.9219 51.5374 59.9033L51.3733 59.7393C49.3977 57.832 48.9944 54.8516 50.3889 52.4863L50.6077 52.124L41.5159 43.0322C41.0989 42.6152 41.0989 41.9385 41.5159 41.5215L41.5432 41.4941C41.7415 41.3027 42.0012 41.2002 42.2747 41.2002C42.5481 41.2002 42.8284 41.3096 43.0334 41.5146L52.1184 50.6064L52.4807 50.3945C53.3899 49.8545 54.429 49.5742 55.4885 49.5742C57.0266 49.5742 58.4827 50.1621 59.5901 51.2285C59.6379 51.2764 59.6858 51.3242 59.7336 51.3721C60.8616 52.5 61.4768 53.9834 61.4768 55.5625C61.4768 57.1416 60.8616 58.6318 59.7473 59.7461C58.6331 60.8604 57.1428 61.4824 55.5637 61.4824ZM55.5227 51.8301C54.5383 51.8301 53.6086 52.2061 52.8977 52.8897C51.4006 54.3389 51.3596 56.7314 52.802 58.2354C53.5198 58.9805 54.4836 59.3906 55.5227 59.3906C56.5618 59.3906 57.4368 59.0146 58.1477 58.3311L58.2366 58.2422C59.6858 56.7383 59.6448 54.3457 58.1477 52.8965C57.4368 52.2129 56.5071 51.8369 55.5227 51.8369V51.8301Z" fill="#015B6D"/>
<path fill-rule="evenodd" clip-rule="evenodd" d="M28.541 23.6865C27.6455 23.6865 26.9277 24.4111 26.9277 25.2998V44.6865C26.9277 45.582 27.6523 46.2998 28.541 46.2998H41.9668C42.8623 46.2998 43.5801 45.5752 43.5801 44.6865V29.7705C43.5801 29.2646 43.3408 28.7861 42.9307 28.4785L36.9629 24.001C36.6826 23.7891 36.3408 23.6797 35.9922 23.6797H28.5342L28.541 23.6865Z" fill="#EAFF80"/>
</g>
<defs>
<clipPath id="clip0_6_1520">
<rect width="70" height="70" fill="white"/>
</clipPath>
</defs>
</svg>
