<svg width="200" height="103" viewBox="0 0 200 103" fill="none" xmlns="http://www.w3.org/2000/svg">
<path d="M82.4334 62.1329C85.4374 69.9772 95.9667 77.3289 110.278 82.5944C110.486 97.4286 126.091 103.002 126.091 103.002C126.091 103.002 121.346 96.9128 127.709 87.5443C137.044 89.5073 147.134 90.6312 157.309 90.6312C184.669 90.6312 195.922 72.1943 198.957 49.9083C201.668 29.9471 199.003 4.51263 171.836 0.586605C153.982 -1.99226 110.933 4.15082 93.4942 14.7126C84.4284 20.2013 76.2483 45.9592 82.4257 62.1329H82.4334Z" fill="#33A1B7"/>
<path d="M98.9629 56.2749C96.4287 62.8953 87.5478 69.0846 75.4779 73.5264C75.3008 86.0358 62.1449 90.7316 62.1449 90.7316C62.1449 90.7316 66.1502 85.597 60.7816 77.6987C52.9096 79.3538 44.3984 80.3007 35.8178 80.3007C12.7411 80.3007 3.25931 64.7505 0.70208 45.9595C-1.58556 29.1238 0.663569 7.67687 23.5708 4.36669C38.6292 2.19583 74.9311 7.37665 89.6351 16.2756C97.2837 20.9022 104.185 42.6262 98.9706 56.2672L98.9629 56.2749Z" fill="#DDF466"/>
<path d="M57.2884 49.8123L52.119 50.7367L51.9794 49.9557C51.3343 46.3483 53.1721 44.1775 54.7961 42.3136C56.1014 40.8137 57.2407 39.4586 56.9149 37.6363C56.5358 35.5165 55.1263 34.502 53.0065 34.8811C50.738 35.2868 49.6174 37.1758 50.0829 39.7791L44.0953 40.8497C43.0779 35.1597 46.3961 30.5366 52.1977 29.4992C58.0364 28.4551 62.0842 30.9168 63.0152 36.1233C63.7401 40.177 61.4388 42.5458 59.5783 44.3752C58.0737 45.834 56.8229 47.209 57.1487 49.0313L57.2884 49.8123ZM56.2942 58.2031C54.3975 58.5423 52.6001 57.2902 52.2742 55.4679C51.9417 53.6084 53.1938 51.811 55.0905 51.4718C56.95 51.1393 58.7912 52.422 59.1171 54.2443C59.4363 56.0294 58.1536 57.8706 56.2942 58.2031Z" fill="#0B1725"/>
<path d="M142.316 55.8703L137.031 55.2553C136.74 51.5942 136.936 45.923 137.57 40.4716L138.379 33.522L146.119 34.4228L145.31 41.3723C144.657 46.9902 143.462 52.5451 142.316 55.8703ZM138.561 65.3029C136.439 65.0559 134.931 63.1512 135.168 61.1121C135.41 59.0314 137.315 57.5238 139.438 57.7708C141.477 58.008 143.067 59.9225 142.825 62.0032C142.588 64.0422 140.6 65.5402 138.561 65.3029Z" fill="white"/>
</svg>
