<svg width="30" height="30" viewBox="0 0 30 30" fill="none" xmlns="http://www.w3.org/2000/svg">
<path d="M25.9758 20.3508L23.8254 22.5L25.9758 24.6492C26.0629 24.7363 26.132 24.8397 26.1791 24.9535C26.2263 25.0673 26.2505 25.1893 26.2505 25.3125C26.2505 25.4357 26.2263 25.5577 26.1791 25.6715C26.132 25.7853 26.0629 25.8887 25.9758 25.9758C25.8887 26.0629 25.7853 26.132 25.6715 26.1791C25.5577 26.2263 25.4357 26.2505 25.3125 26.2505C25.1893 26.2505 25.0673 26.2263 24.9535 26.1791C24.8397 26.132 24.7363 26.0629 24.6492 25.9758L22.5 23.8254L20.3508 25.9758C20.1749 26.1517 19.9363 26.2505 19.6875 26.2505C19.4387 26.2505 19.2001 26.1517 19.0242 25.9758C18.8483 25.7999 18.7495 25.5613 18.7495 25.3125C18.7495 25.0637 18.8483 24.8251 19.0242 24.6492L21.1746 22.5L19.0242 20.3508C18.8483 20.1749 18.7495 19.9363 18.7495 19.6875C18.7495 19.4387 18.8483 19.2001 19.0242 19.0242C19.2001 18.8483 19.4387 18.7495 19.6875 18.7495C19.9363 18.7495 20.1749 18.8483 20.3508 19.0242L22.5 21.1746L24.6492 19.0242C24.8251 18.8483 25.0637 18.7495 25.3125 18.7495C25.5613 18.7495 25.7999 18.8483 25.9758 19.0242C26.1517 19.2001 26.2505 19.4387 26.2505 19.6875C26.2505 19.9363 26.1517 20.1749 25.9758 20.3508ZM27.1875 15C27.1875 15.2486 27.0887 15.4871 26.9129 15.6629C26.7371 15.8387 26.4986 15.9375 26.25 15.9375H11.2793C11.6309 22.234 15.4195 25.3828 15.5883 25.5199C15.7394 25.6416 15.849 25.8072 15.902 25.9938C15.955 26.1805 15.9488 26.3789 15.8843 26.5619C15.8197 26.7449 15.7 26.9033 15.5416 27.0153C15.3833 27.1274 15.194 27.1875 15 27.1875C12.5895 27.1875 10.2332 26.4727 8.22899 25.1335C6.22477 23.7944 4.66267 21.8909 3.74022 19.664C2.81778 17.437 2.57643 14.9865 3.04668 12.6223C3.51694 10.2582 4.67769 8.08659 6.38214 6.38214C8.08659 4.67769 10.2582 3.51694 12.6223 3.04668C14.9865 2.57643 17.437 2.81778 19.664 3.74022C21.8909 4.66267 23.7944 6.22477 25.1335 8.22899C26.4727 10.2332 27.1875 12.5895 27.1875 15ZM17.3918 4.96876C18.743 6.75821 20.3906 9.78399 20.6004 14.0625H25.2691C25.0697 11.9141 24.2029 9.88203 22.7902 8.2512C21.3775 6.62036 19.4898 5.47256 17.3918 4.96876ZM15 5.03907C13.882 6.20157 11.5477 9.18985 11.277 14.0625H18.7231C18.4523 9.18751 16.1191 6.19922 15 5.03907ZM4.73086 14.0625H9.39961C9.60938 9.78399 11.257 6.75821 12.6082 4.96876C10.5102 5.47256 8.62254 6.62036 7.20985 8.2512C5.79716 9.88203 4.93031 11.9141 4.73086 14.0625ZM9.39961 15.9375H4.73086C4.93031 18.0859 5.79716 20.118 7.20985 21.7488C8.62254 23.3797 10.5102 24.5275 12.6082 25.0313C11.257 23.2418 9.60938 20.216 9.39961 15.9375Z" fill="#015B6D"/>
</svg>
