<svg width="149" height="29" viewBox="0 0 149 29" fill="none" xmlns="http://www.w3.org/2000/svg">
<path d="M147.933 3.77116C147.825 3.79391 147.731 3.81713 147.624 3.83988L147.597 3.83896C144.068 4.57708 140.566 5.30289 137.05 6.02824C110.736 11.457 41.944 24.3606 42.011 24.3497C63.1996 23.3934 115.849 20.6865 131.62 19.9784C133.115 19.9113 134.356 23.6519 132.621 23.7371C128.019 23.9342 123.415 24.1444 118.825 24.3552C98.6366 25.2802 78.462 26.1924 58.287 27.1179C45.611 27.6956 32.935 28.2733 20.259 28.8511C18.7917 28.9058 17.5019 25.4021 19.2579 25.0923C30.3017 23.1854 41.3245 21.1188 52.3359 18.9987C74.0502 14.814 124.741 5.25385 131.005 4.02814C131.058 4.03 131.048 3.93689 131.008 3.94873C119.083 4.38042 66.2862 6.72431 51.7204 7.2493C40.1823 7.668 28.6447 8.07346 17.1066 8.49215C12.2784 8.65485 7.44969 8.83077 2.62102 9.0067C1.11377 9.06008 -0.127757 5.31946 1.60614 5.26074C1.69974 5.25076 1.77958 5.25355 1.87318 5.24356C3.70669 5.0028 5.66124 5.11081 7.51535 5.04304C11.5035 4.90401 15.4916 4.76499 19.4934 4.6132C31.5514 4.18615 43.6093 3.75911 55.6672 3.33206C69.6063 2.82494 83.5583 2.33151 97.4969 1.83762C109.035 1.41893 120.573 1.01347 132.111 0.594771C136.939 0.432079 141.768 0.256152 146.596 0.080225C147.876 0.0454171 149.342 3.47582 147.92 3.77069L147.933 3.77116Z" fill="#015B6D"/>
</svg>
