<svg width="247" height="23" viewBox="0 0 247 23" fill="none" xmlns="http://www.w3.org/2000/svg">
<path d="M0.449932 10.7624C-0.649839 10.7976 0.566103 7.84781 1.62236 7.81183C1.75291 7.81411 1.89434 7.81658 2.02528 7.7971C5.19575 7.59125 8.39525 7.59269 11.5747 7.49583C18.2712 7.28623 24.9569 7.07645 31.6535 6.86686C40.996 6.57286 50.3385 6.27885 59.681 5.98485C70.6896 5.63287 81.7089 5.29196 92.7175 4.93998L128.28 3.81949L163.516 2.71506C174.198 2.37914 184.88 2.04322 195.561 1.7073C204.316 1.43568 213.081 1.15337 221.836 0.881758L239.682 0.322652C241.871 0.252028 244.06 0.181403 246.237 0.121469C247.37 0.0868213 246.068 2.98067 245.065 3.07199C244.978 3.07047 244.891 3.07983 244.803 3.08919C242.839 3.39227 240.804 3.43292 238.82 3.60507C234.515 3.97611 230.198 4.35785 225.893 4.72889C212.062 5.93487 198.22 7.14066 184.388 8.35752C166.481 9.92765 148.584 11.5089 130.676 13.0899C112.768 14.6709 93.6496 16.3831 75.1416 18.0516C59.4784 19.465 43.8259 20.8895 28.1725 22.3684C27.1151 22.4697 28.2875 19.5191 29.3449 19.4179C31.0018 19.2618 32.6696 19.1059 34.3265 18.9498C50.5246 17.4369 66.7222 15.9566 82.9194 14.4981C101.536 12.8207 120.164 11.1651 138.791 9.50963C156.383 7.95575 173.964 6.40168 191.556 4.85868C204.646 3.71594 217.736 2.56232 230.826 1.43047C235.96 0.986817 241.094 0.532289 246.227 0.0886405L245.055 3.03916C244.924 3.03689 244.783 3.03442 244.652 3.0539C241.512 3.37999 238.26 3.25793 235.102 3.35517L215.024 3.98414C205.681 4.27814 196.339 4.57214 186.996 4.86614C175.987 5.21812 164.968 5.55904 153.96 5.91102C142.102 6.28082 130.244 6.66151 118.397 7.03151C106.55 7.40151 94.9099 7.77511 83.1611 8.13594C72.4792 8.47186 61.7974 8.80778 51.1156 9.1437C42.3611 9.41531 33.5956 9.69762 24.8411 9.96924L6.99455 10.5283C4.80588 10.599 2.61722 10.6696 0.439623 10.7295L0.450502 10.7297L0.449932 10.7624Z" fill="#33A1B7"/>
</svg>
